<svg width="18" height="18" viewBox="0 0 18 18" fill="none" xmlns="http://www.w3.org/2000/svg">
<path d="M17.171 4.93696C16.5958 5.19245 15.9773 5.36485 15.3279 5.4422C15.9906 5.04532 16.4992 4.41651 16.7389 3.6668C16.1188 4.03469 15.4324 4.3018 14.7012 4.44582C14.116 3.82215 13.2819 3.43239 12.3591 3.43239C10.5869 3.43239 9.15012 4.8692 9.15012 6.64136C9.15012 6.89282 9.17847 7.13761 9.2332 7.37247C6.56624 7.23883 4.20157 5.9614 2.6189 4.0198C2.34277 4.49357 2.18449 5.04472 2.18449 5.63304C2.18449 6.74629 2.75098 7.72841 3.612 8.30404C3.08613 8.28715 2.59112 8.14297 2.15859 7.9025C2.1583 7.91583 2.1583 7.92933 2.1583 7.94314C2.1583 9.49762 3.26444 10.7946 4.73255 11.0896C4.46325 11.1628 4.17972 11.2021 3.88702 11.2021C3.68004 11.2021 3.47913 11.1821 3.28317 11.1445C3.6917 12.4193 4.87673 13.3471 6.28068 13.373C5.18245 14.2338 3.79895 14.7467 2.29533 14.7467C2.03644 14.7467 1.78111 14.7314 1.52997 14.7019C2.95033 15.6126 4.63689 16.1437 6.44902 16.1437C12.3516 16.1437 15.579 11.2539 15.579 7.01341C15.579 6.8745 15.5762 6.73575 15.57 6.59824C16.1968 6.14587 16.7411 5.58066 17.171 4.93696Z" fill="black"/>
</svg>
