<svg width="18" height="18" viewBox="0 0 18 18" fill="none" xmlns="http://www.w3.org/2000/svg">
<path d="M8.95241 5.30159C6.73019 5.30159 4.88892 7.11111 4.88892 9.36508C4.88892 11.6191 6.69844 13.4286 8.95241 13.4286C11.2064 13.4286 13.0159 11.5873 13.0159 9.36508C13.0159 7.14286 11.1746 5.30159 8.95241 5.30159ZM8.95241 11.9683C7.52384 11.9683 6.34923 10.7937 6.34923 9.36508C6.34923 7.93651 7.52384 6.76191 8.95241 6.76191C10.381 6.76191 11.5556 7.93651 11.5556 9.36508C11.5556 10.7937 10.381 11.9683 8.95241 11.9683Z" fill="black"/>
<path d="M13.1745 6.12699C13.683 6.12699 14.0952 5.7148 14.0952 5.20635C14.0952 4.6979 13.683 4.28572 13.1745 4.28572C12.6661 4.28572 12.2539 4.6979 12.2539 5.20635C12.2539 5.7148 12.6661 6.12699 13.1745 6.12699Z" fill="black"/>
<path d="M15.5555 2.8254C14.7301 1.96826 13.5555 1.52381 12.2222 1.52381H5.68252C2.92062 1.52381 1.07935 3.36508 1.07935 6.12699V12.6349C1.07935 14 1.52379 15.1746 2.41268 16.0317C3.26982 16.8571 4.41268 17.2698 5.71427 17.2698H12.1905C13.5555 17.2698 14.6984 16.8254 15.5238 16.0317C16.3809 15.2064 16.8254 14.0317 16.8254 12.6667V6.12699C16.8254 4.79365 16.3809 3.6508 15.5555 2.8254ZM15.3651 12.6667C15.3651 13.6508 15.0793 14.4444 14.5079 14.9841C13.9365 15.5238 13.1428 15.8095 12.1905 15.8095H5.71427C4.76189 15.8095 3.96823 15.5238 3.39681 14.9841C2.82538 14.4127 2.53966 13.619 2.53966 12.6349V6.12699C2.53966 5.1746 2.82538 4.38095 3.39681 3.80953C3.93649 3.26984 4.76189 2.98413 5.71427 2.98413H12.2539C13.2063 2.98413 14 3.26984 14.5714 3.84127C15.1111 4.4127 15.4286 5.20635 15.4286 6.12699V12.6667H15.3651Z" fill="black"/>
</svg>
